<svg width="24" height="25" viewBox="0 0 24 25" fill="none" xmlns="http://www.w3.org/2000/svg">
<path d="M13.19 9.18803C13.8398 9.49828 14.4057 9.95996 14.8401 10.5343C15.2745 11.1086 15.5647 11.7787 15.6864 12.4885C15.8081 13.1982 15.7577 13.9268 15.5394 14.613C15.3211 15.2992 14.9414 15.923 14.432 16.432L9.932 20.932C9.08808 21.7759 7.94348 22.2501 6.75 22.2501C5.55652 22.2501 4.41192 21.7759 3.568 20.932C2.72408 20.0881 2.24997 18.9435 2.24997 17.75C2.24997 16.5565 2.72408 15.4119 3.568 14.568L5.325 12.811M18.675 12.189L20.432 10.432C21.2759 9.58811 21.75 8.44351 21.75 7.25003C21.75 6.05655 21.2759 4.91195 20.432 4.06803C19.5881 3.22411 18.4435 2.75 17.25 2.75C16.0565 2.75 14.9119 3.22411 14.068 4.06803L9.568 8.56803C9.05863 9.07703 8.67886 9.70084 8.46058 10.387C8.2423 11.0733 8.19188 11.8018 8.31357 12.5116C8.43525 13.2213 8.72549 13.8915 9.15989 14.4658C9.59429 15.0401 10.1602 15.5018 10.81 15.812" stroke="white" stroke-width="1.5" stroke-linecap="round" stroke-linejoin="round"/>
</svg>
