<svg width="27" height="36" viewBox="0 0 27 36" fill="none" xmlns="http://www.w3.org/2000/svg">
<path d="M21.0743 23.7017C23.6927 25.3801 24.8784 27.7496 24.8784 31.1559C22.6552 33.9697 18.8512 35.5 14.3555 35.5C6.79691 35.5 1.41199 31.7482 0.275726 25.2814H7.53795C8.4766 28.2433 10.9467 29.6255 14.3061 29.6255C18.3078 29.6749 21.0249 27.5028 21.0743 23.7017ZM6.89571 11.9528C4.42557 10.4718 2.99288 7.80606 3.09169 4.94288C5.21601 2.17842 8.87183 0.5 13.3181 0.5C21.0743 0.5 25.5206 4.59732 26.6569 10.3237H19.6417C18.8512 8.05289 16.9245 6.27574 13.4169 6.27574C9.61287 6.32511 7.04392 8.49718 6.89571 11.9528Z" fill="#515151"/>
<path d="M3.09172 4.99225C3.09172 9.68195 6.00649 12.4958 11.836 13.9767L18.0114 15.4083C23.5445 16.6918 26.9039 19.8512 26.9039 24.9852C26.9533 27.2066 26.2123 29.3787 24.8784 31.1559C24.8784 26.0219 22.2106 23.2574 15.8377 21.579L9.7611 20.1968C4.87022 19.1107 1.1156 16.4944 1.1156 10.9161C1.1156 8.79338 1.80724 6.67067 3.09172 4.99225Z" fill="black"/>
</svg>
