<svg width="66" height="66" viewBox="0 0 66 66" fill="none" xmlns="http://www.w3.org/2000/svg">
<path d="M10.8733 8.625L11.0637 10.8467L14.6184 51.0273L14.7454 52.4238L16.0784 52.8047L32.2014 57.3115L32.7092 57.4385L33.2805 57.3115L49.4036 52.8682L50.7366 52.4873L50.8635 51.0908L54.4817 10.8467L54.6721 8.68848H52.4504L13.095 8.625H10.8733ZM15.3167 12.6875L50.2288 12.751L46.928 49.3135L32.7727 53.249L18.554 49.3135L15.3167 12.6875ZM20.2043 18.7812L21.5374 33.9521H38.9299L38.3586 40.4902L32.7727 42.0137H32.7092L27.1233 40.4902L26.8059 36.3008H21.7278L22.426 44.3623L32.7092 47.2188H32.7727L43.0559 44.3623L44.4524 28.9375H26.1077L25.6633 23.7959H44.8967L45.3411 18.7812H20.2043Z" fill="black"/>
</svg>
