<svg width="59" height="59" viewBox="0 0 59 59" fill="none" xmlns="http://www.w3.org/2000/svg">
<path d="M29.9545 5.33334C16.629 5.33334 5.78784 16.1745 5.78784 29.5C5.78784 42.8255 16.629 53.6667 29.9545 53.6667C43.28 53.6667 54.1212 42.8255 54.1212 29.5C54.1212 16.1745 43.28 5.33334 29.9545 5.33334ZM29.9545 8.95834C41.2814 8.95834 50.4962 18.1731 50.4962 29.5C50.4962 36.5712 46.9046 42.8159 41.4502 46.5134L24.8097 21.8394C24.3662 21.1784 23.5353 20.89 22.7777 21.1196C22.0164 21.354 21.4962 22.0579 21.4962 22.8542V38.5625C21.4962 39.563 22.3082 40.375 23.3087 40.375C24.3092 40.375 25.1212 39.563 25.1212 38.5625V28.7826L38.2642 48.2693C35.7194 49.3991 32.9125 50.0417 29.9545 50.0417C18.6276 50.0417 9.41284 40.8269 9.41284 29.5C9.41284 18.1731 18.6276 8.95834 29.9545 8.95834ZM36.6003 18.625C35.5998 18.625 34.7878 19.437 34.7878 20.4375V30.6918L38.4128 35.891V20.4375C38.4128 19.437 37.6008 18.625 36.6003 18.625Z" fill="black"/>
</svg>
