<svg width="56" height="56" viewBox="0 0 56 56" fill="none" xmlns="http://www.w3.org/2000/svg">
<g clip-path="url(#clip0_23_82)">
<path d="M47.5149 31.0822C45.5932 31.0921 43.9278 31.5541 42.5319 32.2416C42.0215 31.223 41.5045 30.3265 41.4176 29.6599C41.3164 28.8822 41.1987 28.418 41.3208 27.4907C41.4429 26.5634 41.9797 25.2511 41.9709 25.1532C41.9632 25.0553 41.851 24.5834 40.7422 24.5746C39.6334 24.5669 38.6852 24.788 38.573 25.0806C38.4608 25.3732 38.2474 26.0321 38.1154 26.7196C37.9207 27.725 35.9022 31.311 34.7549 33.1865C34.3798 32.4539 34.0608 31.8093 33.9948 31.2989C33.8936 30.5212 33.7759 30.057 33.898 29.1297C34.0201 28.2024 34.5569 26.8901 34.5481 26.7922C34.5404 26.6943 34.4282 26.2224 33.3194 26.2136C32.2106 26.2059 31.2624 26.427 31.1502 26.7196C31.038 27.0122 30.9192 27.6964 30.6926 28.3586C30.4649 29.0208 27.7809 35.0015 27.078 36.5514C26.7194 37.3412 26.4081 37.9759 26.1881 38.4093L26.187 38.4071C26.187 38.4071 26.1738 38.4357 26.1496 38.4852C25.9615 38.8537 25.8493 39.0583 25.8493 39.0583C25.8493 39.0583 25.8504 39.0616 25.8526 39.066C25.703 39.3366 25.5435 39.5885 25.4643 39.5885C25.4093 39.5885 25.2982 38.8669 25.4885 37.878C25.8878 35.8034 26.847 32.5672 26.8382 32.4561C26.8338 32.3989 27.0164 31.8357 26.2112 31.5398C25.4291 31.2538 25.1497 31.7312 25.0782 31.7323C25.0089 31.7334 24.9572 31.9006 24.9572 31.9006C24.9572 31.9006 25.8295 28.2618 23.294 28.2618C21.71 28.2618 19.5144 29.9954 18.432 31.5662C17.75 31.938 16.2892 32.7355 14.7393 33.5869C14.1442 33.9136 13.537 34.248 12.9606 34.5659C12.921 34.523 12.8825 34.479 12.8418 34.4361C9.76842 31.157 4.08802 28.8382 4.32892 24.4305C4.41692 22.8278 4.97352 18.6082 15.2453 13.4899C23.6592 9.29669 30.3956 10.4506 31.5594 13.0081C33.2226 16.6612 27.9591 23.4515 19.2218 24.4305C15.8921 24.8034 14.1398 23.5131 13.7031 23.0324C13.2444 22.5264 13.1762 22.5033 13.0046 22.599C12.7252 22.7541 12.9023 23.2007 13.0046 23.4669C13.2653 24.1456 14.3356 25.3501 16.1616 25.9485C17.7676 26.4754 21.6759 26.7647 26.4037 24.9365C31.698 22.8883 35.8318 17.1914 34.6185 12.4295C33.3832 7.58619 25.3532 5.99449 17.7533 8.69389C13.2301 10.301 8.33402 12.8233 4.81292 16.1156C0.626323 20.0316 -0.0402773 23.4394 0.234723 24.8628C1.21262 29.9228 8.18552 33.2173 10.9784 35.6593C10.8409 35.7352 10.7111 35.8067 10.5934 35.8716C9.19312 36.5646 3.87792 39.3465 2.54802 42.2857C1.03992 45.6198 2.78782 48.0123 3.94612 48.3346C7.53212 49.3323 11.2127 47.5371 13.1905 44.5869C15.1683 41.6378 14.9263 37.7977 14.0188 36.0443C14.0078 36.0223 13.9946 36.0014 13.9836 35.9794C14.3455 35.7649 14.714 35.5482 15.0792 35.3337C15.792 34.9157 16.4916 34.5252 17.0988 34.1941C16.7589 35.1247 16.5103 36.2401 16.3805 37.8516C16.2287 39.7447 17.0042 42.1911 18.0195 43.1536C18.4661 43.5771 19.004 43.587 19.345 43.587C20.5264 43.587 21.0654 42.6047 21.6583 41.442C22.3865 40.0164 23.0322 38.3576 23.0322 38.3576C23.0322 38.3576 22.2215 42.8401 24.4303 42.8401C25.2344 42.8401 26.044 41.7962 26.4048 41.2649C26.4059 41.2704 26.4059 41.2737 26.4059 41.2737C26.4059 41.2737 26.4268 41.2396 26.4675 41.1692C26.5511 41.0416 26.5984 40.9602 26.5984 40.9602C26.5984 40.9602 26.6006 40.9514 26.6028 40.9371C26.9262 40.3761 27.6434 39.0957 28.7192 36.9837C30.1085 34.2557 31.4417 30.8391 31.4417 30.8391C31.4417 30.8391 31.566 31.6751 31.9719 33.0556C32.2106 33.8685 32.7188 34.7672 33.1192 35.6285C32.7969 36.0762 32.5989 36.3325 32.5989 36.3325C32.5989 36.3325 32.6011 36.3369 32.6044 36.3457C32.347 36.6878 32.0577 37.0563 31.7552 37.4171C30.6585 38.7239 29.3517 40.2155 29.1768 40.6467C28.9711 41.1538 29.0195 41.5278 29.4177 41.827C29.7081 42.0459 30.2262 42.08 30.7674 42.0437C31.753 41.9777 32.4471 41.7324 32.7892 41.5839C33.3227 41.3958 33.9442 41.0988 34.5272 40.6698C35.603 39.8789 36.252 38.747 36.1904 37.2477C36.1563 36.4216 35.8923 35.6032 35.559 34.8299C35.6569 34.6891 35.7548 34.5483 35.8527 34.4042C37.5489 31.9237 38.8645 29.199 38.8645 29.199C38.8645 29.199 38.9888 30.035 39.3947 31.4155C39.6004 32.1151 40.0063 32.8774 40.3704 33.6254C38.7754 34.9212 37.7865 36.4271 37.4422 37.4149C36.8075 39.242 37.3047 40.0703 38.2375 40.2584C38.6599 40.3442 39.2572 40.1506 39.706 39.9603C40.2648 39.7755 40.9358 39.4664 41.5628 39.0055C42.6386 38.2146 43.6737 37.1069 43.611 35.6076C43.5824 34.9256 43.3976 34.248 43.1468 33.5968C44.4987 33.0336 46.2499 32.7201 48.4796 32.9808C53.2635 33.5396 54.2018 36.5261 54.0225 37.7757C53.8432 39.0264 52.84 39.7128 52.5045 39.9207C52.169 40.1286 52.0667 40.2001 52.0953 40.3541C52.136 40.5785 52.2911 40.5697 52.5771 40.5213C52.9709 40.4553 55.0884 39.5049 55.1797 37.1971C55.2941 34.2733 52.4869 31.0558 47.5149 31.0822ZM10.6451 43.5122C9.06112 45.2403 6.84682 45.8937 5.89752 45.3437C4.87232 44.7497 5.27822 42.2043 7.22302 40.3706C8.40772 39.253 9.93782 38.2234 10.9531 37.5887C11.1841 37.4501 11.5229 37.2455 11.9354 36.998C12.0036 36.9595 12.0421 36.9375 12.0421 36.9375L12.041 36.9353C12.1202 36.888 12.2027 36.8385 12.2863 36.7879C12.9936 39.3993 12.3083 41.6983 10.6451 43.5122ZM22.1874 35.6648C21.6352 37.0101 20.4802 40.452 19.7773 40.2672C19.1734 40.1088 18.806 37.4919 19.6563 34.9179C20.0842 33.6221 20.9983 32.0733 21.5362 31.4716C22.4008 30.5047 23.3534 30.1879 23.5844 30.5806C23.8803 31.08 22.5339 34.8211 22.1874 35.6648ZM31.7244 40.2155C31.4901 40.3376 31.2756 40.4146 31.1766 40.3552C31.1029 40.3112 31.2734 40.1506 31.2734 40.1506C31.2734 40.1506 32.4658 38.8669 32.9366 38.2828C33.2094 37.9429 33.5273 37.5392 33.8716 37.0882C33.8749 37.1333 33.876 37.1784 33.876 37.2224C33.8716 38.7602 32.3866 39.7975 31.7244 40.2155ZM39.0713 38.5402C38.8964 38.4159 38.9261 38.0144 39.4992 36.7648C39.7247 36.2742 40.2384 35.447 41.1327 34.6572C41.2361 34.9817 41.2999 35.293 41.2977 35.5834C41.2856 37.5183 39.9051 38.241 39.0713 38.5402Z" fill="black"/>
</g>
<defs>
<clipPath id="clip0_23_82">
<rect width="55" height="55" fill="white" transform="translate(0.181915 0.5)"/>
</clipPath>
</defs>
</svg>
