<svg width="51" height="50" viewBox="0 0 51 50" fill="none" xmlns="http://www.w3.org/2000/svg">
<path d="M25.0455 4.16666C13.5392 4.16666 4.21216 13.4937 4.21216 25C4.21216 34.2573 10.2549 42.0948 18.608 44.8083H31.483C39.8361 42.0948 45.8788 34.2573 45.8788 25C45.8788 13.4937 36.5517 4.16666 25.0455 4.16666Z" fill="url(#paint0_linear_23_75)"/>
<path opacity="0.05" d="M31.3059 43.7458L31.2955 37.7062C31.2955 36.7281 31.0663 35.7729 30.6267 34.9073C36.5028 33.7271 39.3622 30.2531 39.3622 24.3062C39.3622 21.9573 38.6695 19.8833 37.3038 18.1396C37.408 17.8094 37.4851 17.4677 37.533 17.1177C37.7288 15.6917 37.509 14.7594 37.3319 14.0094L37.3038 13.8885C37.1101 13.0594 36.8778 12.4677 36.8684 12.4427L36.7528 12.149L36.6372 11.8552L36.3226 11.8219L36.0069 11.7885C36.0069 11.7885 35.7997 11.7667 35.4851 11.7667C35.0486 11.7667 34.4017 11.8104 33.7903 12.0177L33.5861 12.0865C32.8153 12.3458 32.0872 12.5917 31.0684 13.2C30.7705 13.3781 30.4445 13.5812 30.0955 13.8083C28.5184 13.4177 26.8215 13.2187 25.0455 13.2187C23.2517 13.2187 21.5403 13.4187 19.9528 13.8135C19.5997 13.5844 19.2715 13.3792 18.9715 13.2C17.9528 12.5917 17.2247 12.3469 16.4538 12.0865L16.2497 12.0177C15.6403 11.8104 14.9924 11.7667 14.5559 11.7667C14.2413 11.7667 14.034 11.7885 14.034 11.7885L13.7195 11.8219L13.407 11.8542L13.2903 12.1469L13.1726 12.4417C13.1622 12.4687 12.9299 13.0604 12.7361 13.8906L12.708 14.0104C12.5309 14.7594 12.3111 15.6927 12.507 17.1177C12.557 17.4781 12.6372 17.8312 12.7465 18.1708C11.408 19.9062 10.7299 21.9687 10.7299 24.3062C10.7299 30.2385 13.5924 33.7104 19.4767 34.9C19.2747 35.3042 19.1174 35.7312 19.0059 36.175C18.8007 36.2448 18.6122 36.2917 18.4455 36.3177C18.1976 36.3552 17.9382 36.374 17.6757 36.374C16.9611 36.374 16.3997 36.2344 16.1809 36.1042C15.8549 35.9104 15.2726 35.3469 14.708 34.5229C14.2257 33.8198 13.4736 32.9 12.633 32.5156C11.9059 32.1833 11.1361 31.9927 10.5195 31.9927C10.3757 31.9927 10.2434 32.0031 10.1278 32.0219C9.58924 32.1073 9.13924 32.4031 8.89445 32.8344C8.68299 33.2062 8.64966 33.6396 8.80278 34.0229C9.03091 34.5937 9.68924 35.049 10.2017 35.3302C10.4538 35.4687 10.9986 35.975 11.3163 36.4854C11.5549 36.8687 11.6653 37.1417 11.8184 37.5187C11.909 37.7427 12.009 37.9865 12.1445 38.2812C12.634 39.3458 14.1622 40.2854 14.3351 40.3885C15.1747 40.8917 16.5861 41.0531 17.6236 41.1L17.7517 41.1031H17.7528C18.0028 41.1031 18.3465 41.0792 18.7986 41.0292V43.751C18.8007 44.3021 18.2392 44.4271 17.4965 44.4156L18.0663 44.6073C20.2486 45.3875 22.5924 45.8333 25.0455 45.8333C27.4986 45.8333 29.8424 45.3875 32.0278 44.6083L32.7601 44.3354C32.0195 44.3104 31.3122 44.1896 31.3059 43.7458Z" fill="url(#paint1_linear_23_75)"/>
<path opacity="0.07" d="M32.109 44.5802C31.6861 44.6292 30.7747 44.4667 30.7747 43.7521V37.7063C30.7747 36.5667 30.433 35.4656 29.7997 34.5271C35.9611 33.5302 38.8403 30.2635 38.8403 24.3063C38.8403 21.976 38.1257 19.9375 36.7163 18.2417C36.859 17.8615 36.959 17.4604 37.0163 17.0469C37.1986 15.7177 36.9997 14.874 36.8247 14.1292L36.7965 14.0083C36.6111 13.2156 36.3924 12.6573 36.383 12.6344L36.2674 12.3406L35.9517 12.3073C35.9517 12.3073 35.7663 12.2875 35.484 12.2875C35.0872 12.2875 34.5007 12.326 33.957 12.5115L33.7528 12.5802C33.009 12.8313 32.3059 13.0677 31.3351 13.6469C30.9892 13.8531 30.6038 14.0958 30.1882 14.3698C28.5913 13.9521 26.8632 13.7396 25.0455 13.7396C23.2101 13.7396 21.4674 13.9531 19.859 14.375C19.4392 14.099 19.0517 13.8552 18.7038 13.6469C17.733 13.0677 17.0299 12.8302 16.2861 12.5802L16.082 12.5115C15.5392 12.3271 14.9517 12.2875 14.5549 12.2875C14.2726 12.2875 14.0872 12.3073 14.0872 12.3073L13.7726 12.3406L13.6549 12.6354C13.6455 12.6583 13.4267 13.2167 13.2413 14.0094L13.2132 14.1302C13.0372 14.875 12.8382 15.7177 13.0215 17.0469C13.0799 17.4708 13.184 17.8813 13.332 18.2698C11.9497 19.9573 11.2497 21.9854 11.2497 24.3063C11.2497 30.2469 14.1309 33.5125 20.2976 34.5208C19.8861 35.1354 19.5986 35.8281 19.4507 36.5667C19.107 36.7021 18.7955 36.7917 18.5226 36.8333C18.2486 36.875 17.9632 36.8958 17.6747 36.8958C16.9559 36.8958 16.2653 36.7615 15.9142 36.5531C15.4559 36.2813 14.8132 35.601 14.2767 34.8188C13.9122 34.2875 13.1861 33.3427 12.4142 32.9906C11.7528 32.6885 11.0622 32.5146 10.5174 32.5146C10.4028 32.5146 10.2986 32.5229 10.207 32.5375C9.82571 32.5979 9.51112 32.8 9.34446 33.0938C9.21112 33.3271 9.18925 33.5969 9.283 33.8313C9.46946 34.2979 10.1601 34.7167 10.4486 34.875C10.7976 35.0667 11.4059 35.65 11.7549 36.2125C12.0163 36.6333 12.1403 36.9385 12.2976 37.324C12.3861 37.5417 12.483 37.7792 12.6142 38.0656C12.959 38.8146 14.0236 39.599 14.5986 39.9438C15.384 40.4146 16.8424 40.5458 17.6424 40.5813L17.758 40.5833C18.0695 40.5833 18.5913 40.5365 19.3153 40.4427V43.7521C19.3153 44.5635 18.283 44.5958 18.0299 44.5958C17.9976 44.5958 18.5538 44.7875 18.5538 44.7875C20.5986 45.4583 22.7767 45.8333 25.0455 45.8333C27.3142 45.8333 29.4924 45.4583 31.5361 44.7885C31.5361 44.7885 32.1413 44.576 32.109 44.5802Z" fill="url(#paint2_linear_23_75)"/>
<path d="M38.3205 24.3062C38.3205 21.9 37.5059 19.9042 36.1153 18.3396C36.2663 18.001 36.4236 17.5469 36.5018 16.976C36.6809 15.6739 36.4695 14.8927 36.2903 14.1281C36.1111 13.3635 35.8997 12.826 35.8997 12.826C35.8997 12.826 34.9393 12.7281 34.1257 13.0052C33.3122 13.2823 32.6122 13.4937 31.6028 14.0958C31.1309 14.3771 30.6559 14.6854 30.2799 14.9354C28.6726 14.4896 26.9049 14.2604 25.0455 14.2604C23.1695 14.2604 21.3861 14.4906 19.7674 14.9396C19.3903 14.6885 18.9122 14.3781 18.4372 14.0948C17.4278 13.4927 16.7278 13.2812 15.9143 13.0042C15.1007 12.7271 14.1403 12.825 14.1403 12.825C14.1403 12.825 13.9288 13.3625 13.7497 14.1271C13.5705 14.8917 13.3591 15.6729 13.5382 16.975C13.6184 17.5604 13.7809 18.0229 13.9361 18.3635C12.5716 19.9187 11.7716 21.9021 11.7716 24.3052C11.7716 30.5375 15.1382 33.3823 21.2726 34.1333C20.557 34.8896 20.0768 35.8583 19.9153 36.9364C19.5122 37.1135 19.0476 37.2802 18.6007 37.3469C17.4507 37.5208 16.2351 37.3469 15.6497 37C15.0643 36.6531 14.3695 35.8719 13.8486 35.1114C13.4091 34.4698 12.7747 33.725 12.1997 33.4625C11.4403 33.1156 10.7018 32.9854 10.2903 33.05C9.8778 33.1156 9.68301 33.4187 9.76947 33.6364C9.85593 33.8531 10.2684 34.1792 10.7028 34.4177C11.1372 34.6562 11.8101 35.3073 12.2007 35.9364C12.6361 36.6385 12.7216 37.0437 13.0903 37.8458C13.3497 38.4104 14.2372 39.1156 14.8695 39.4948C15.4122 39.8208 16.4966 40.0062 17.6695 40.0594C18.0747 40.0781 19.032 39.9594 19.8393 39.8448V43.751C19.8393 44.4167 19.2299 44.9229 18.5986 44.8062C20.6247 45.4875 22.7882 45.8333 25.0455 45.8333C27.3018 45.8333 29.4653 45.4875 31.4934 44.8083C30.8632 44.9239 30.2538 44.4177 30.2538 43.7521V37.7062C30.2538 36.3219 29.7049 35.0708 28.8236 34.1385C34.9132 33.4073 38.3205 30.6302 38.3205 24.3062ZM11.7528 34.0906C11.5924 34.0083 11.5059 33.8562 11.5601 33.7489C11.6143 33.6417 11.7893 33.6219 11.9497 33.7042C12.1101 33.7864 12.1966 33.9385 12.1424 34.0458C12.0882 34.1531 11.9132 34.1729 11.7528 34.0906ZM13.0153 34.8771C12.9309 34.9687 12.7497 34.9396 12.6101 34.8125C12.4705 34.6854 12.4257 34.5073 12.5101 34.4156C12.5945 34.3239 12.7757 34.3531 12.9153 34.4802C13.0549 34.6073 13.0997 34.7854 13.0153 34.8771ZM13.8007 36.1792C13.6945 36.2542 13.5143 36.1844 13.3986 36.0229C13.283 35.8614 13.2757 35.6687 13.382 35.5937C13.4882 35.5187 13.6684 35.5885 13.7841 35.75C13.8986 35.9114 13.907 36.1042 13.8007 36.1792ZM14.9288 37.1594C14.857 37.276 14.6528 37.2812 14.4736 37.1719C14.2945 37.0625 14.207 36.8792 14.2788 36.7625C14.3507 36.6458 14.5549 36.6406 14.7341 36.75C14.9132 36.8594 15.0007 37.0427 14.9288 37.1594ZM15.9955 38.1187C15.7736 38.0917 15.6091 37.9531 15.6278 37.8094C15.6455 37.6656 15.8403 37.5719 16.0611 37.5989C16.283 37.626 16.4476 37.7646 16.4288 37.9083C16.4111 38.051 16.2174 38.1458 15.9955 38.1187ZM17.7153 38.3677C17.4788 38.3542 17.2945 38.2187 17.3038 38.0667C17.3132 37.9146 17.5122 37.801 17.7486 37.8146C17.9851 37.8281 18.1695 37.9635 18.1601 38.1156C18.1507 38.2687 17.9518 38.3812 17.7153 38.3677ZM19.3382 38.2052C19.0861 38.2052 18.882 38.0739 18.882 37.9125C18.882 37.751 19.0861 37.6198 19.3382 37.6198C19.5903 37.6198 19.7945 37.751 19.7945 37.9125C19.7945 38.0739 19.5893 38.2052 19.3382 38.2052Z" fill="white"/>
<defs>
<linearGradient id="paint0_linear_23_75" x1="4.21216" y1="24.4875" x2="45.8788" y2="24.4875" gradientUnits="userSpaceOnUse">
<stop stop-color="#4C4C4C"/>
<stop offset="1" stop-color="#343434"/>
</linearGradient>
<linearGradient id="paint1_linear_23_75" x1="4.21216" y1="24.4875" x2="45.8788" y2="24.4875" gradientUnits="userSpaceOnUse">
<stop stop-color="#4C4C4C"/>
<stop offset="1" stop-color="#343434"/>
</linearGradient>
<linearGradient id="paint2_linear_23_75" x1="4.21217" y1="24.4875" x2="45.8788" y2="24.4875" gradientUnits="userSpaceOnUse">
<stop stop-color="#4C4C4C"/>
<stop offset="1" stop-color="#343434"/>
</linearGradient>
</defs>
</svg>
