<svg width="49" height="48" viewBox="0 0 49 48" fill="none" xmlns="http://www.w3.org/2000/svg">
<g clip-path="url(#clip0_23_86)">
<path d="M47.0174 14.162C46.0414 13.748 44.9114 14.158 44.4374 15.106C43.9894 16.002 43.3914 16.552 42.6094 16.782C41.3854 17.148 39.9234 16.678 39.2394 16.276C38.3374 15.746 37.2914 14.942 36.1854 14.092C32.6554 11.376 28.2634 8 22.2274 8C17.3994 8 14.9194 10.478 10.8134 14.586C10.0314 15.368 10.0254 16.64 10.8074 17.42C11.5674 18.184 12.7874 18.208 13.5714 17.48C13.5914 17.462 13.6114 17.442 13.6314 17.424C14.7354 16.572 21.6914 17.4 24.7314 19.816C29.2494 23.406 32.5114 26 36.2274 26C41.5454 26 45.9854 22.518 48.1074 16.684C48.4694 15.688 47.9914 14.582 47.0174 14.162ZM37.0174 28.162C36.0414 27.748 34.9114 28.158 34.4374 29.106C33.9894 30.002 33.3914 30.552 32.6094 30.782C31.3854 31.142 29.9234 30.678 29.2394 30.276C28.3374 29.746 27.2914 28.942 26.1854 28.092C22.6554 25.376 18.2634 22 12.2274 22C7.39939 22 4.91939 24.478 0.813386 28.586C0.0313856 29.368 0.0253856 30.64 0.807386 31.42C1.56739 32.184 2.78939 32.21 3.57339 31.48C3.59339 31.462 3.61339 31.442 3.63339 31.424C4.73539 30.572 11.6954 31.4 14.7334 33.816C19.2494 37.406 22.5114 40 26.2274 40C31.5454 40 35.9854 36.518 38.1074 30.684C38.4694 29.688 37.9914 28.582 37.0174 28.162Z" fill="black"/>
</g>
<defs>
<clipPath id="clip0_23_86">
<rect width="48" height="48" fill="white" transform="translate(0.227386)"/>
</clipPath>
</defs>
</svg>
