<svg width="51" height="52" viewBox="0 0 51 52" fill="none" xmlns="http://www.w3.org/2000/svg">
<path d="M47.7289 23.0317L28.4684 3.77118C27.6516 2.9504 26.5758 2.54001 25.5 2.54001C24.4243 2.54001 23.3485 2.9504 22.5317 3.77118L18.7226 7.58024L23.4361 12.2938C25.002 11.3734 27.042 11.5726 28.3847 12.9153C29.7275 14.2581 29.9227 16.2981 29.0023 17.8599L33.6361 22.4938C35.202 21.5734 37.242 21.7726 38.5847 23.1153C40.1785 24.7091 40.1785 27.2909 38.5847 28.8847C36.991 30.4784 34.4091 30.4784 32.8154 28.8847C31.4726 27.542 31.2734 25.502 32.1938 23.9361L27.56 19.3023C27.2293 19.4975 26.8826 19.6409 26.52 19.7326V32.2634C28.2772 32.7177 29.58 34.2995 29.58 36.2C29.58 38.4552 27.7552 40.28 25.5 40.28C23.2449 40.28 21.42 38.4552 21.42 36.2C21.42 34.2995 22.7229 32.7177 24.48 32.2634V19.7326C23.7987 19.5573 23.1493 19.2186 22.6154 18.6847C21.2726 17.342 21.0774 15.302 21.9978 13.7401L17.2803 9.02259L3.27121 23.0317C1.62965 24.6692 1.62965 27.3308 3.27121 28.9684L22.5317 48.2288C23.3485 49.0496 24.4243 49.46 25.5 49.46C26.5758 49.46 27.6516 49.0496 28.4684 48.2288L47.7289 28.9684C49.3704 27.3308 49.3704 24.6692 47.7289 23.0317Z" fill="black"/>
</svg>
