<svg width="53" height="53" viewBox="0 0 53 53" fill="none" xmlns="http://www.w3.org/2000/svg">
<path d="M7.79825 4.66C6.27887 4.66 5.02356 5.91532 5.02356 7.43469V45.5653C5.02356 47.0847 6.27887 48.34 7.79825 48.34H45.9289C47.4482 48.34 48.7036 47.0888 48.7036 45.5653V7.43469C48.7036 5.91532 47.4523 4.66 45.9289 4.66H7.79825ZM7.79825 6.74H45.9289C46.3148 6.74 46.6236 7.04875 46.6236 7.43469V45.5653C46.6236 45.9513 46.3148 46.26 45.9289 46.26H7.79825C7.41231 46.26 7.10356 45.9513 7.10356 45.5653V7.43469C7.10356 7.04875 7.41231 6.74 7.79825 6.74ZM24.7836 24.42V37.4972C24.7836 39.5041 24.0239 40.02 22.7036 40.02C21.3223 40.02 20.3636 39.1588 19.7298 38.0416L16.4636 40.02C17.4101 42.0228 19.7298 44.18 22.9473 44.18C26.5061 44.18 28.9436 42.2869 28.9436 38.1309V24.42H24.7836ZM37.7348 24.42C34.1923 24.42 31.9214 26.6869 31.9214 29.6647C31.9214 32.8944 33.8267 34.4219 36.6907 35.6406L37.682 36.0672C39.4898 36.8594 40.3836 37.3428 40.3836 38.7038C40.3836 39.8372 39.5223 40.6578 37.877 40.6578C35.9189 40.6578 34.9926 39.3294 34.1436 37.94L31.0236 40.02C32.1895 42.3234 34.2817 44.18 37.9664 44.18C41.7364 44.18 44.5436 42.2219 44.5436 38.6509C44.5436 35.3359 42.6423 33.8613 39.2664 32.415L38.2751 31.9925C36.5729 31.2531 35.8336 30.7738 35.8336 29.5834C35.8336 28.6206 36.5729 27.8813 37.7348 27.8813C38.8764 27.8813 39.6076 28.3647 40.2861 29.5834L43.3776 27.6009C42.0736 25.2975 40.2576 24.42 37.7348 24.42Z" fill="black"/>
</svg>
