<svg width="52" height="52" viewBox="0 0 52 52" fill="none" xmlns="http://www.w3.org/2000/svg">
<path d="M47.0872 8.66678L39.0122 5.90428C38.4767 5.72068 37.8783 5.81758 37.4278 6.16268L19.2242 20.1197L10.0153 14.559C9.54274 14.2717 8.96134 14.2326 8.45474 14.4553L5.05474 15.9428C4.43594 16.2131 4.03644 16.8251 4.03644 17.5V34.5C4.03644 35.1749 4.43594 35.7869 5.05474 36.0572L8.45474 37.5447C8.95964 37.7674 9.54104 37.7266 10.0153 37.441L19.2225 31.8803L37.4261 45.8373C37.727 46.0685 38.0925 46.1875 38.4597 46.1875C38.645 46.1875 38.8303 46.1569 39.0105 46.0957L47.0855 43.3332C47.774 43.0986 48.2364 42.4526 48.2364 41.725V10.275C48.2364 9.54739 47.774 8.90138 47.0872 8.66678ZM10.8364 29.0022V22.9978L15.8055 26L10.8364 29.0022ZM38.0364 34.0189L26.201 26L38.0364 17.9811V34.0189Z" fill="black"/>
</svg>
