<svg width="57" height="56" viewBox="0 0 57 56" fill="none" xmlns="http://www.w3.org/2000/svg">
<path d="M20.1172 7.80573C18.9767 7.80573 17.9189 8.06105 16.9818 8.60052C14.0532 10.2913 12.9385 14.4117 13.5292 19.5417C8.79217 21.5952 5.7818 24.6188 5.7818 28C5.7818 31.3812 8.79217 34.4048 13.5292 36.4583C12.9388 41.5881 14.0532 45.7087 16.9818 47.3995C17.917 47.9389 18.9748 48.1943 20.1172 48.1943C22.5488 48.1943 25.3591 46.9739 28.1818 44.8802C31.0047 46.9739 33.8185 48.1943 36.25 48.1943C37.3906 48.1943 38.4484 47.9389 39.3854 47.3995C42.314 45.7087 43.4287 41.5883 42.8381 36.4583C47.5733 34.4049 50.5818 31.3804 50.5818 28C50.5818 24.6188 47.5714 21.5952 42.8344 19.5417C43.4248 14.4119 42.3104 10.2913 39.3818 8.60052C38.4466 8.05918 37.3888 7.80573 36.2464 7.80573C33.8148 7.80573 31.0045 9.0261 28.1818 11.1198C25.359 9.0261 22.5479 7.80573 20.1172 7.80573ZM20.1172 11.0724C21.5763 11.0724 23.5057 11.8482 25.6006 13.2854C24.3689 14.4478 23.1626 15.7695 22.0021 17.2411C20.1198 17.511 18.3451 17.9045 16.7011 18.3969C16.6922 18.2829 16.6713 18.1632 16.6646 18.0505C16.4649 14.7278 17.1946 12.251 18.6151 11.4297C19.0351 11.187 19.5255 11.0724 20.1172 11.0724ZM36.2464 11.0724C36.8363 11.0724 37.3285 11.187 37.7485 11.4297C39.169 12.2492 39.8987 14.7278 39.699 18.0505C39.6922 18.1632 39.6714 18.2829 39.6625 18.3969C38.0175 17.9042 36.2414 17.5111 34.3578 17.2411C33.1973 15.7697 31.9947 14.4476 30.7631 13.2854C32.8577 11.8484 34.7881 11.0724 36.2464 11.0724ZM28.1818 15.3599C28.6878 15.8205 29.1903 16.3073 29.6985 16.8401C29.1949 16.8232 28.694 16.8 28.1818 16.8C27.6709 16.8 27.1712 16.8233 26.6688 16.8401C27.1765 16.3078 27.6763 15.82 28.1818 15.3599ZM28.1818 20.0667C29.7287 20.0667 31.1948 20.1531 32.586 20.3036C33.4343 21.4568 34.2704 22.6759 35.0542 24.0333C35.8054 25.3345 36.4697 26.6662 37.0558 28C36.4696 29.3346 35.8059 30.6684 35.0542 31.9703C34.2729 33.3238 33.4389 34.5351 32.5933 35.6854C31.153 35.843 29.6755 35.9333 28.1818 35.9333C26.6349 35.9333 25.1688 35.8469 23.7776 35.6964C22.9293 34.5432 22.0932 33.3277 21.3094 31.9703C20.5577 30.6684 19.8942 29.3346 19.3078 28C19.8937 26.6662 20.5582 25.3345 21.3094 24.0333C22.091 22.6798 22.9245 21.4649 23.7703 20.3146C25.2106 20.157 26.6881 20.0667 28.1818 20.0667ZM37.0412 21.0766C37.7818 21.2554 38.4937 21.4484 39.163 21.6635C39.0114 22.3487 38.826 23.047 38.6162 23.7526C38.376 23.3019 38.143 22.8497 37.8834 22.4C37.6162 21.9374 37.3196 21.5218 37.0412 21.0766ZM19.3188 21.0802C19.0413 21.5241 18.7466 21.9389 18.4802 22.4C18.2206 22.8498 17.9876 23.3018 17.7474 23.7526C17.5372 23.0455 17.3487 22.3464 17.1969 21.6599C17.8785 21.4445 18.5887 21.2538 19.3188 21.0802ZM14.1235 22.8594C14.5168 24.52 15.0624 26.2414 15.7641 27.9963C15.0638 29.7471 14.5205 31.4654 14.1271 33.1224C10.8764 31.5526 9.04847 29.5986 9.04847 28C9.04847 26.3592 10.8253 24.4893 13.8026 23.0016C13.9043 22.9507 14.0196 22.909 14.1235 22.8594ZM42.2365 22.8776C45.4872 24.4474 47.3151 26.4014 47.3151 28C47.3151 29.6408 45.5383 31.5107 42.561 32.9984C42.4593 33.0493 42.344 33.091 42.2401 33.1406C41.8466 31.479 41.3055 29.756 40.6032 28C41.3026 26.2508 41.8434 24.5332 42.2365 22.8776ZM28.1818 24.2667C26.1191 24.2667 24.4485 25.9373 24.4485 28C24.4485 30.0627 26.1191 31.7333 28.1818 31.7333C30.2445 31.7333 31.9151 30.0627 31.9151 28C31.9151 25.9373 30.2445 24.2667 28.1818 24.2667ZM17.7474 32.2474C17.9877 32.6983 18.2241 33.1501 18.4839 33.6C18.7508 34.0622 19.0443 34.4785 19.3224 34.9234C18.5818 34.7446 17.8699 34.5516 17.2005 34.3365C17.3523 33.6509 17.5374 32.9534 17.7474 32.2474ZM38.6162 32.251C38.8262 32.9574 39.015 33.6542 39.1667 34.3401C38.4851 34.5555 37.7749 34.7462 37.0448 34.9198C37.3223 34.4759 37.617 34.0611 37.8834 33.6C38.1424 33.1512 38.3765 32.7009 38.6162 32.251ZM16.7011 37.6031C18.3461 38.0958 20.1222 38.4889 22.0058 38.7589C23.1666 40.231 24.3684 41.5556 25.6006 42.7182C23.5059 44.155 21.5762 44.9312 20.1172 44.9312C19.5273 44.9312 19.0351 44.813 18.6151 44.5703C17.1946 43.7508 16.4649 41.2758 16.6646 37.9531C16.6715 37.8392 16.6921 37.7183 16.7011 37.6031ZM39.6625 37.6031C39.6715 37.7183 39.6922 37.8392 39.699 37.9531C39.8987 41.2758 39.169 43.749 37.7485 44.5703C37.3285 44.813 36.8381 44.9312 36.2464 44.9312C34.7874 44.9312 32.8577 44.1553 30.7631 42.7182C31.9953 41.5555 33.2004 40.2312 34.3615 38.7589C36.2438 38.489 38.0185 38.0955 39.6625 37.6031ZM26.6651 39.1599C27.1687 39.1768 27.6696 39.2 28.1818 39.2C28.694 39.2 29.1949 39.1768 29.6985 39.1599C29.1903 39.6927 28.6878 40.1796 28.1818 40.6401C27.6758 40.1795 27.1733 39.6927 26.6651 39.1599Z" fill="black"/>
</svg>
